<svg xmlns="http://www.w3.org/2000/svg" width="281.333" height="67.033" viewBox="0 0 281.333 67.033">
  <g>
    <g class="logo-svg">
      <path fill="#d70912" d="M3.005 37.644a1.103 1.103 0 011.948 1.037L0 47.981v12.765h6.945V49.625a3.05 3.05 0 01.358-1.435l5.66-10.64a2.873 2.873 0 00-1.186-3.887l-8.561-4.559a2.867 2.867 0 00-3.217.359V43.29z" data-name="Tracé 13" />
      <path fill="#d70912" d="M6.51 12.037a3.05 3.05 0 00.358-1.435V.225A.879.879 0 006.822 0H.001v24.3z" data-name="Tracé 14" />
      <path fill="#d70912" d="M19.205 0h-.19a.873.873 0 00-.046.225v11.031a3.056 3.056 0 01-.358 1.435l-5.675 10.656a1.104 1.104 0 01-1.948-1.038l5.416-10.169a3.058 3.058 0 00.358-1.435V.225A.873.873 0 0016.716 0H9.043a.874.874 0 00-.046.225v11.141a3.048 3.048 0 01-.358 1.434l-5.66 10.64a2.873 2.873 0 001.186 3.887l8.56 4.559a2.873 2.873 0 003.886-1.186l9.9-18.663a3.058 3.058 0 00.358-1.435V.978A30.4 30.4 0 0019.201 0" data-name="Tracé 15" />
      <path fill="#328734" d="M38.974 7.325v3.932a3.048 3.048 0 01-.358 1.435l-5.674 10.656a1.103 1.103 0 11-1.948-1.037l5.416-10.17a3.047 3.047 0 00.358-1.434V5.6a30.267 30.267 0 00-7.766-3.976v9.742a3.048 3.048 0 01-.358 1.435l-5.66 10.64a2.873 2.873 0 001.186 3.887l8.561 4.559a2.874 2.874 0 003.886-1.186l8.546-16.105a30.524 30.524 0 00-6.189-7.271" data-name="Tracé 16" />
      <path fill="#d70912" d="M19.336 30.291l-9.9 18.663a3.05 3.05 0 00-.358 1.435v10.359h7.9V49.735a3.048 3.048 0 01.358-1.435l5.675-10.656a1.104 1.104 0 011.948 1.038l-5.416 10.169a3.05 3.05 0 00-.358 1.435v10.462h.019a30.41 30.41 0 007.746-1V49.625a3.055 3.055 0 01.358-1.434l5.66-10.64a2.873 2.873 0 00-1.186-3.887l-8.561-4.559a2.874 2.874 0 00-3.886 1.186" data-name="Tracé 17" />
      <path fill="#d70912" d="M39.341 30.291l-9.9 18.663a3.05 3.05 0 00-.358 1.435v8.709a30.288 30.288 0 007.9-4.1v-5.259a3.056 3.056 0 01.357-1.435l5.675-10.656a1.103 1.103 0 011.947 1.038l-5.415 10.169a3.05 3.05 0 00-.358 1.435v2.95a30.291 30.291 0 0010.309-20.791l-6.272-3.34a2.874 2.874 0 00-3.887 1.186" data-name="Tracé 18" />
      <path fill="#d70912" d="M42.988 23.441a2.873 2.873 0 001.186 3.886l5.4 2.875a30.235 30.235 0 00-3.127-13.263z" data-name="Tracé 19" />
      <path fill="#328734" d="M85.964 35.596a2.123 2.123 0 000-1.227v-.681a7.2 7.2 0 01-.137-.84 3.231 3.231 0 00-.182-.8 20.32 20.32 0 01-.159-.681 3.5 3.5 0 00-.2-.636 9.018 9.018 0 00-1.408-2.408 5.934 5.934 0 00-2.181-1.636 4.352 4.352 0 00-.932-.341q-.477-.113-1.022-.2a3.3 3.3 0 00-.8-.091h-.84q-.228.045-.409.068a3.289 3.289 0 01-.409.022q-.364.092-.75.182a6.261 6.261 0 00-.75.227 5.655 5.655 0 00-2.34 1.84 10.324 10.324 0 00-1.431 2.794 4.822 4.822 0 00-.25 1.022c-.045.349-.1.69-.159 1.023a2.386 2.386 0 01-.023.341 2.365 2.365 0 00-.023.341 1.075 1.075 0 00-.068.5c.015.182.023.349.023.5v.976a4.054 4.054 0 00.091.887 1.622 1.622 0 01.046.454q.091.319.159.636c.046.212.1.425.159.636a8.8 8.8 0 001.363 2.726 6.833 6.833 0 002.181 1.863 4.792 4.792 0 00.818.364q.409.137.909.273a.843.843 0 00.478.045.859.859 0 01.477.046 1.592 1.592 0 00.386.046h.795a1.6 1.6 0 01.455-.046c.242-.06.484-.114.727-.159a3.231 3.231 0 00.681-.2 7.161 7.161 0 002.431-1.613 8.179 8.179 0 001.567-2.476 4.292 4.292 0 00.319-1q.091-.5.227-1a.762.762 0 00.091-.341 1.409 1.409 0 01.045-.341 2.226 2.226 0 00.023-.546 2.124 2.124 0 01.023-.545m3.68 8.588v1.159a1.732 1.732 0 01-.227.932.909.909 0 01-.749.341c-.349.015-.7.022-1.068.022-.182 0-.357.009-.523.023a.782.782 0 01-.431-.068.74.74 0 01-.545-.364.952.952 0 01-.2-.545 2.008 2.008 0 00-.159-.636.619.619 0 00-.114-.158l-.159-.16a.875.875 0 00-.7.182q-.25.228-.522.454a7.99 7.99 0 01-1.818 1.046 7.9 7.9 0 01-1.886.545 14.969 14.969 0 01-2.181.2 13.478 13.478 0 01-2.2-.136 7.315 7.315 0 01-1.908-.522 10.074 10.074 0 01-3.817-2.7 12.21 12.21 0 01-2.272-4.249 3.346 3.346 0 01-.25-.841 6.728 6.728 0 00-.2-.886 2.267 2.267 0 01-.046-.454 2.378 2.378 0 00-.046-.455 1 1 0 01-.068-.477 1.679 1.679 0 00-.023-.478v-.454a1.971 1.971 0 010-1.181v-.5a1.915 1.915 0 00.068-.659 1.9 1.9 0 01.068-.659 2.165 2.165 0 00.046-.409 2.116 2.116 0 01.045-.408c.091-.3.166-.6.227-.887a7.556 7.556 0 01.227-.84 13.171 13.171 0 011.522-3.113 8.52 8.52 0 012.249-2.294 8.979 8.979 0 011.613-.909 13.851 13.851 0 011.84-.636q.318-.044.614-.091a4.792 4.792 0 00.613-.135h.455a6.294 6.294 0 012.135 0 2.167 2.167 0 00.5.045 7.86 7.86 0 001 .2 3.058 3.058 0 01.954.3q.681.273 1.294.591a8.355 8.355 0 011.159.727l.568.478a.92.92 0 00.8.159q.09-.136.159-.227a.769.769 0 00.113-.272 3.023 3.023 0 00.114-1.046c-.016-.424-.023-.8-.023-1.135v-6.666a2.253 2.253 0 01.227-1.159.837.837 0 01.545-.409 1.381 1.381 0 00.227-.022 1.4 1.4 0 01.227-.023 13.113 13.113 0 011.341-.023 1.2 1.2 0 01.977.386 1.685 1.685 0 01.227.909v28.58z" data-name="Tracé 20" />
      <path fill="#328734" d="M106.933 13.577a1.266 1.266 0 01-.25.022 3.4 3.4 0 00-.636.364 1.635 1.635 0 00-.5.567c-.121.227-.243.448-.363.659q-.408.637-.818 1.318t-.773 1.319a4.724 4.724 0 00-.409.567 2.3 2.3 0 00-.272.659.571.571 0 00.022.478.834.834 0 00.25.3 1.725 1.725 0 001.113.113 3.2 3.2 0 001.022-.3 1.9 1.9 0 00.432-.364q.2-.227.386-.454a3.88 3.88 0 01.3-.273 1.013 1.013 0 00.25-.318 3.041 3.041 0 01.363-.386 2.957 2.957 0 00.363-.386.236.236 0 00.113-.091.621.621 0 01.114-.135 2.283 2.283 0 01.386-.386 1.381 1.381 0 00.341-.387q.226-.272.431-.522c.137-.166.28-.325.432-.477l.5-.5a1.429 1.429 0 00.363-.545 1.026 1.026 0 00.046-.5.878.878 0 00-.5-.273 4.276 4.276 0 00-.795-.114q-.433-.022-.909 0t-.8.023a1.02 1.02 0 00-.2.023m4.839 18.4a1.062 1.062 0 000-.614 7.806 7.806 0 00-.773-1.863 8.468 8.468 0 00-1.408-1.772 6.449 6.449 0 00-2-1.227c-.212-.06-.425-.113-.636-.159s-.439-.1-.681-.159a3.222 3.222 0 00-.773-.091h-.773a.449.449 0 01-.318.068.736.736 0 00-.318.023c-.243.061-.477.114-.7.159s-.447.1-.659.159a6.206 6.206 0 00-2.113 1.364 8.523 8.523 0 00-1.431 2.044 4.12 4.12 0 00-.273.568 4.768 4.768 0 00-.227.75 2.219 2.219 0 00-.046.773.723.723 0 00.318.545 2.044 2.044 0 001.249.25q.886-.022 1.522-.023h6.907q.681 0 1.636.023a1.618 1.618 0 001.272-.341 1.548 1.548 0 00.227-.477m4.2 3.044a1.347 1.347 0 01-.3.795 1.387 1.387 0 01-.659.25 6.29 6.29 0 01-.977.068c-.363 0-.728-.007-1.091-.023s-.682-.023-.954-.023h-11.629c-.243 0-.484.008-.726.023a1.3 1.3 0 00-.591.159 1.027 1.027 0 00-.364.363 1.8 1.8 0 00-.182.386.643.643 0 000 .477 2.184 2.184 0 01.046.409 1.493 1.493 0 00.045.363q.091.364.182.75a3.4 3.4 0 00.273.75 6.4 6.4 0 003.453 3.5 3.368 3.368 0 00.59.227q.318.093.636.182a1.573 1.573 0 00.454.046 7.868 7.868 0 003.363 0q.636-.181 1.159-.386a4.67 4.67 0 00.977-.522 3.757 3.757 0 00.863-.75 5.594 5.594 0 00.636-.931 7.014 7.014 0 00.477-.955 1.327 1.327 0 01.7-.726 1.891 1.891 0 01.591-.137 4.973 4.973 0 01.818-.022c.273.015.53.038.773.068a.871.871 0 01.5.182c.3.212.378.561.227 1.045a8.993 8.993 0 01-.954 2.181 8.6 8.6 0 01-5 3.908 4.14 4.14 0 01-.909.25c-.3.046-.621.1-.954.159a2.262 2.262 0 01-.431.045 2.218 2.218 0 00-.432.046h-.454a2.756 2.756 0 01-.523.046 2.071 2.071 0 01-.477-.046h-.409a2.116 2.116 0 00-.408-.046 1.529 1.529 0 01-.363-.045 4.262 4.262 0 00-.5-.068 4.541 4.541 0 01-.5-.068q-.408-.092-.818-.2t-.773-.25a1.21 1.21 0 00-.318-.114 1.123 1.123 0 01-.318-.113q-.682-.317-1.455-.772a8.766 8.766 0 01-2.249-2.113 12.766 12.766 0 01-1.568-2.795 4.961 4.961 0 01-.341-1.045 9.861 9.861 0 00-.3-1.09 1.305 1.305 0 01-.046-.318 1.969 1.969 0 00-.046-.363 5.749 5.749 0 01-.136-.773 7.652 7.652 0 00-.136-.818v-.636a3.05 3.05 0 01-.068-.522 2.176 2.176 0 01.023-.568v-.5a1.028 1.028 0 00.068-.478 1.606 1.606 0 01.023-.477q.181-.726.3-1.454a5.654 5.654 0 01.386-1.363q.226-.5.432-1.022a8.931 8.931 0 01.477-1.022 13.125 13.125 0 012.272-2.749 10.694 10.694 0 013.135-1.932 5.983 5.983 0 011.113-.341q.567-.113 1.2-.249c.151-.03.287-.053.408-.068a3.386 3.386 0 01.409-.023.294.294 0 01.227 0 .206.206 0 00.227-.046 10.531 10.531 0 013.316.386 10.321 10.321 0 012.545 1.159.911.911 0 01.364.25 1 1 0 00.318.249 9.036 9.036 0 01.75.636 5.862 5.862 0 01.659.728 17.531 17.531 0 011.227 1.818 4.484 4.484 0 01.5 1.09q.182.591.409 1.181a6.677 6.677 0 01.341 1.227 12.826 12.826 0 00.3 1.273c.03.212.052.425.068.636s.037.425.068.636a3.247 3.247 0 01.023 1.022" data-name="Tracé 21" />
      <path fill="#328734" d="M131.083 22.689a8.473 8.473 0 012.931.364 7.564 7.564 0 012.2 1.181 1.986 1.986 0 01.613.613 4.218 4.218 0 00.568.7 2.6 2.6 0 00.273.227.568.568 0 00.454.091 1.6 1.6 0 00.8-.568 2.831 2.831 0 01.7-.659 10.664 10.664 0 011.318-.887 8.493 8.493 0 011.5-.658 4.035 4.035 0 01.795-.2c.288-.046.568-.1.841-.16a2.257 2.257 0 01.431-.045h.432a1.546 1.546 0 01.636-.068 3.553 3.553 0 01.59.068 3.788 3.788 0 00.681.045c.273.062.538.114.8.16a4.228 4.228 0 01.75.2 1.653 1.653 0 00.431.113 1.7 1.7 0 01.432.113 5.709 5.709 0 013.135 3.09 3.33 3.33 0 01.273.8c.06.288.121.6.181.932a.411.411 0 01.068.3.636.636 0 00.023.3v.409a1.22 1.22 0 01.023.408 4.5 4.5 0 00-.023.455v13.313q0 .727.023 1.726a1.58 1.58 0 01-.386 1.318 1.4 1.4 0 01-.591.2 5.3 5.3 0 01-.863.068 8.489 8.489 0 01-.886-.045 1.271 1.271 0 01-.614-.182.743.743 0 01-.364-.546 1.182 1.182 0 01-.045-.568 1.207 1.207 0 00-.046-.567 1.9 1.9 0 01-.023-.523c.015-.2.023-.386.023-.567V32.911q0-1.5-.068-2.84a4.481 4.481 0 00-.659-2.249 3.9 3.9 0 00-2.09-1.591 2.391 2.391 0 00-.568-.113 3.072 3.072 0 01-.613-.114 2.262 2.262 0 00-.591-.022 2.61 2.61 0 00-.545.068 1.5 1.5 0 01-.455.023.959.959 0 00-.454.068 8.1 8.1 0 00-1.227.364 5.463 5.463 0 00-3.181 3.5 6.8 6.8 0 00-.25 1.772q-.023 1-.022 2.045v11.472a1.506 1.506 0 01-.227.887.936.936 0 01-.773.409q-.545.045-1.136.045a2.651 2.651 0 01-1.135-.182.937.937 0 01-.478-.75 8.954 8.954 0 01-.068-1.158V32.731q0-1.454-.091-2.7a4.81 4.81 0 00-.636-2.158 3.5 3.5 0 00-1.135-1.2 5.581 5.581 0 00-1.727-.614 1.627 1.627 0 00-.386-.046h-.431a6.064 6.064 0 00-1.749.227 5.718 5.718 0 00-1.341.591 6.847 6.847 0 00-3.09 4.225 4.113 4.113 0 00-.16 1.341q.022.749.023 1.477v11.36a1.631 1.631 0 01-.272 1 .9.9 0 01-.681.364q-.455.045-.954.045h-.681a3.973 3.973 0 00-.523-.136.7.7 0 01-.431-.272 1.06 1.06 0 01-.227-.7V24.393a1.243 1.243 0 01.182-.7.689.689 0 01.409-.364 5 5 0 012.317 0 1.062 1.062 0 01.5.455 1.861 1.861 0 01.114.545q.022.318.068.59a1.027 1.027 0 00.182.455.531.531 0 00.455.182.282.282 0 01.2-.091.281.281 0 00.2-.091c.182-.151.356-.3.523-.455s.341-.3.522-.454a11.643 11.643 0 012.272-1.272 4.053 4.053 0 01.909-.249 8.331 8.331 0 00.954-.205c.182 0 .371-.007.568-.022s.386-.023.568-.023" data-name="Tracé 22" />
      <path fill="#328734" d="M170.091 13.577a1.254 1.254 0 01-.249.022 3.4 3.4 0 00-.636.364 1.635 1.635 0 00-.5.567c-.121.227-.243.448-.363.659q-.408.637-.818 1.318t-.773 1.319a4.717 4.717 0 00-.409.567 2.322 2.322 0 00-.273.659.573.573 0 00.023.478.834.834 0 00.25.3 1.725 1.725 0 001.113.113 3.2 3.2 0 001.022-.3 1.9 1.9 0 00.432-.364q.2-.227.386-.454a3.88 3.88 0 01.3-.273 1.013 1.013 0 00.25-.318 3.045 3.045 0 01.363-.386 2.961 2.961 0 00.364-.386.236.236 0 00.104-.085.621.621 0 01.114-.135 2.282 2.282 0 01.386-.386 1.382 1.382 0 00.341-.387q.226-.272.431-.522c.137-.166.28-.325.432-.477l.5-.5a1.429 1.429 0 00.364-.545 1.026 1.026 0 00.046-.5.878.878 0 00-.5-.273 4.276 4.276 0 00-.795-.114q-.433-.022-.909 0c-.318.016-.583.023-.8.023a1.031 1.031 0 00-.2.023m4.84 18.4a1.063 1.063 0 000-.614 7.806 7.806 0 00-.773-1.863 8.468 8.468 0 00-1.408-1.772 6.449 6.449 0 00-2-1.227c-.212-.06-.425-.113-.637-.159s-.439-.1-.681-.159a3.222 3.222 0 00-.773-.091h-.773a.449.449 0 01-.318.068.736.736 0 00-.318.023c-.243.061-.477.114-.7.159s-.447.1-.659.159a6.206 6.206 0 00-2.113 1.364 8.522 8.522 0 00-1.431 2.044 4.056 4.056 0 00-.273.568 4.771 4.771 0 00-.227.75 2.218 2.218 0 00-.046.773.723.723 0 00.318.545 2.044 2.044 0 001.249.25q.886-.022 1.522-.023h6.907q.681 0 1.636.023a1.618 1.618 0 001.272-.341 1.549 1.549 0 00.227-.477m4.2 3.044a1.334 1.334 0 01-.3.795 1.384 1.384 0 01-.658.25 6.3 6.3 0 01-.978.068q-.545 0-1.09-.023t-.955-.023h-11.622c-.243 0-.484.008-.726.023a1.3 1.3 0 00-.591.159 1.027 1.027 0 00-.364.363 1.8 1.8 0 00-.182.386.643.643 0 000 .477 2.177 2.177 0 01.045.409 1.5 1.5 0 00.046.363q.09.364.182.75a3.4 3.4 0 00.273.75 6.4 6.4 0 003.453 3.5 3.368 3.368 0 00.59.227q.318.093.636.182a1.573 1.573 0 00.454.046 7.868 7.868 0 003.363 0q.636-.181 1.159-.386a4.669 4.669 0 00.977-.522 3.772 3.772 0 00.863-.75 5.588 5.588 0 00.636-.931 7 7 0 00.478-.955 1.326 1.326 0 01.7-.726 1.9 1.9 0 01.591-.137 4.973 4.973 0 01.818-.022q.408.023.772.068a.867.867 0 01.5.182c.3.212.379.561.228 1.045a9.017 9.017 0 01-.954 2.181 8.6 8.6 0 01-5 3.908 4.14 4.14 0 01-.909.25c-.3.046-.621.1-.954.159a2.262 2.262 0 01-.431.045 2.218 2.218 0 00-.432.046h-.454a2.756 2.756 0 01-.523.046 2.07 2.07 0 01-.477-.046h-.409a2.116 2.116 0 00-.408-.046 1.529 1.529 0 01-.363-.045 4.264 4.264 0 00-.5-.068 4.538 4.538 0 01-.5-.068q-.409-.092-.818-.2t-.772-.25a1.211 1.211 0 00-.318-.114 1.123 1.123 0 01-.318-.113q-.682-.317-1.455-.772a8.765 8.765 0 01-2.249-2.113 12.768 12.768 0 01-1.568-2.795 4.961 4.961 0 01-.341-1.045 9.858 9.858 0 00-.3-1.09 1.306 1.306 0 01-.046-.318 1.975 1.975 0 00-.046-.363 5.734 5.734 0 01-.136-.773 7.667 7.667 0 00-.136-.818v-.636a3.045 3.045 0 01-.068-.522 2.178 2.178 0 01.023-.568v-.5a1.027 1.027 0 00.068-.478 1.629 1.629 0 01.022-.477q.182-.726.3-1.454a5.653 5.653 0 01.386-1.363q.226-.5.432-1.022a8.92 8.92 0 01.477-1.022 13.127 13.127 0 012.272-2.749 10.693 10.693 0 013.135-1.932 5.982 5.982 0 011.113-.341q.567-.113 1.2-.249c.151-.03.287-.053.408-.068a3.385 3.385 0 01.409-.023.294.294 0 01.227 0 .206.206 0 00.227-.046 10.531 10.531 0 013.316.386 10.319 10.319 0 012.544 1.159.912.912 0 01.364.25 1 1 0 00.318.249 9.039 9.039 0 01.75.636 5.806 5.806 0 01.658.728 17.671 17.671 0 011.228 1.818 4.509 4.509 0 01.5 1.09q.18.591.408 1.181a6.629 6.629 0 01.351 1.217 12.463 12.463 0 00.3 1.273c.03.212.052.425.068.636s.037.425.068.636a3.209 3.209 0 01.022 1.022" data-name="Tracé 23" />
      <path fill="#d70912" d="M203.659 32.565c.228-1.95 1.353-3.958 3.915-3.958 2.378 0 3.788 1.481 3.959 3.958zm4.613-10.265c-7.56 0-12.273 5.183-12.273 12.273 0 7.93 5.183 12.6 12.273 12.6a13.482 13.482 0 008.258-2.763c.37-.327.512-.64.227-1.068-.925-1.451-2.235-3.316-3.2-4.67-.242-.327-.512-.412-.655-.227a6.012 6.012 0 01-4.484 2.335c-2.748 0-4.713-1.58-4.756-4.115h13.95c.7 0 .826-.086.925-.555a12.622 12.622 0 00.285-3.175 10.22 10.22 0 00-10.55-10.636" data-name="Tracé 24" />
      <path fill="#d70912" d="M180.523 23.47c0-.227.043-.555.371-.555h2.05l.143-5.837c0-.455.042-.641.37-.641h6.635a.838.838 0 01.883.783l-.1 5.7h3.972c.327 0 .469.142.469.37v5c0 .455-.142.64-.512.64-.94 0-2.848-.042-3.93-.042v8.642c0 2.037 1.452 3.076 3.872 2.563.569-.142.8.043.9.555s.6 3.773.7 4.428a.617.617 0 01-.428.7 10.9 10.9 0 01-4.755 1.31c-7.888 0-8.216-5.31-8.216-10.023v-8.182h-1.907c-.327 0-.513 0-.513-.512z" data-name="Tracé 25" />
      <path fill="#d70912" d="M219.99 23.47c0-.555 0-.555.37-.555h6.951c.327 0 .37 0 .37.555v2.292a6.219 6.219 0 015.6-3.545c3.459 0 5.88 1.907 5.98 5.638-.983.983-4.3 4.429-4.855 4.941a1.685 1.685 0 01-1.168.284c0-2.093-.883-3.218-2.563-3.218a3.269 3.269 0 00-2.762 1.78v14.309c0 .427-.086.527-.356.527h-7.19c-.328 0-.37 0-.37-.655z" data-name="Tracé 26" />
      <path fill="#d70912" d="M239.951 23.47c0-.555 0-.555.37-.555h6.962c.314 0 .37 0 .37.555v2.292a6.2 6.2 0 015.6-3.545c3.445 0 5.88 1.907 5.966 5.638-.968.983-4.286 4.429-4.855 4.941a1.666 1.666 0 01-1.153.284c0-2.093-.883-3.218-2.563-3.218a3.25 3.25 0 00-2.762 1.78v14.309c0 .427-.1.527-.37.527h-7.19c-.328 0-.37 0-.37-.655z" data-name="Tracé 27" />
      <path fill="#d70912" d="M266.17 32.565c.228-1.95 1.353-3.958 3.915-3.958 2.378 0 3.788 1.481 3.959 3.958zm4.614-10.265c-7.56 0-12.273 5.183-12.273 12.273 0 7.93 5.183 12.6 12.273 12.6a13.478 13.478 0 008.257-2.763c.371-.327.514-.64.229-1.068-.926-1.451-2.235-3.316-3.2-4.67-.242-.327-.512-.412-.655-.227a6.012 6.012 0 01-4.485 2.335c-2.748 0-4.712-1.58-4.756-4.115h13.954c.7 0 .826-.086.925-.555a12.623 12.623 0 00.285-3.175 10.22 10.22 0 00-10.55-10.636" data-name="Tracé 28" />
    </g>
    <g class="logo-baseline">
<path fill="#9daba0" d="M67.177 63.002v-7.426a.391.391 0 01.127-.289.406.406 0 01.292-.124.4.4 0 01.292.121.4.4 0 01.121.292v7.427q0 .743.521.743a.389.389 0 01.276.111.365.365 0 01.117.276.365.365 0 01-.117.276.389.389 0 01-.273.109 1.286 1.286 0 01-1-.384 1.632 1.632 0 01-.356-1.132zm2.456-1.548a3.41 3.41 0 01.7-2.3 2.473 2.473 0 011.974-.812 3.076 3.076 0 01.9.124 1.937 1.937 0 01.667.34 2.614 2.614 0 01.459.464 1.9 1.9 0 01.282.552 3.91 3.91 0 01.136.549 3.065 3.065 0 01.041.5q0 .19-.01.3a1.284 1.284 0 01-.049.247.366.366 0 01-.159.216.566.566 0 01-.3.07h-3.8a2.206 2.206 0 00.524 1.546 1.848 1.848 0 001.441.568 2.23 2.23 0 00.864-.146 3.214 3.214 0 00.7-.409.439.439 0 01.23-.083.357.357 0 01.267.111.373.373 0 01.108.27.419.419 0 01-.14.3 2.29 2.29 0 01-.355.282 2.98 2.98 0 01-.682.3 3.181 3.181 0 01-.993.152 2.723 2.723 0 01-2.071-.777 3.325 3.325 0 01-.734-2.364zm.844-.482h3.5a2.911 2.911 0 00-.076-.692 2.052 2.052 0 00-.251-.594 1.163 1.163 0 00-.517-.441 1.931 1.931 0 00-.822-.159 1.706 1.706 0 00-1.3.5 2.149 2.149 0 00-.533 1.385zm8.69 3.136v-5.282a.4.4 0 01.121-.3.411.411 0 01.3-.117.4.4 0 01.3.117.4.4 0 01.117.3v.419a1.46 1.46 0 01.632-.647 2.087 2.087 0 011.057-.26 3.034 3.034 0 011.295.248 1.722 1.722 0 01.774.66 2.078 2.078 0 011.9-.908 3.484 3.484 0 011.022.136 2.1 2.1 0 01.711.352 1.726 1.726 0 01.435.527 2.184 2.184 0 01.229.619 3.451 3.451 0 01.06.663v3.472a.4.4 0 01-.117.3.4.4 0 01-.3.117.411.411 0 01-.3-.117.4.4 0 01-.121-.3v-3.3a1.988 1.988 0 00-.367-1.289 1.544 1.544 0 00-1.26-.448 1.646 1.646 0 00-1.222.409 1.572 1.572 0 00-.4 1.152v3.476a.4.4 0 01-.117.3.4.4 0 01-.3.117.411.411 0 01-.3-.117.4.4 0 01-.121-.3v-3.3a2.05 2.05 0 00-.345-1.289 1.509 1.509 0 00-1.25-.444 1.468 1.468 0 00-1.231.473 2.155 2.155 0 00-.368 1.349v3.211a.4.4 0 01-.117.3.4.4 0 01-.3.117.411.411 0 01-.3-.117.4.4 0 01-.116-.3zm10.1-1.377a1.631 1.631 0 01.609-1.346 2.586 2.586 0 011.663-.489h1.834v-.349a1.367 1.367 0 00-.413-1.047 1.576 1.576 0 00-1.127-.389 2.044 2.044 0 00-.854.159 1.958 1.958 0 00-.646.508.454.454 0 01-.343.184.357.357 0 01-.267-.111.373.373 0 01-.108-.27.433.433 0 01.063-.222 2.084 2.084 0 01.838-.743 2.871 2.871 0 011.32-.279 2.4 2.4 0 011.739.6 2.141 2.141 0 01.616 1.612v3.569a.377.377 0 01-.122.282.405.405 0 01-.29.117.394.394 0 01-.287-.117.382.382 0 01-.118-.282v-.47a1.6 1.6 0 01-.746.692 2.521 2.521 0 01-1.114.248 2.535 2.535 0 01-1.647-.489 1.669 1.669 0 01-.6-1.369zm.844 0a.979.979 0 00.368.813 1.768 1.768 0 001.111.292 1.9 1.9 0 001.257-.438 1.505 1.505 0 00.527-1.225v-.546H91.54a1.742 1.742 0 00-1.044.279.955.955 0 00-.385.824zm5.935 1.074a3.443 3.443 0 01-.7-2.352 3.416 3.416 0 01.7-2.342 2.527 2.527 0 011.984-.774 2.506 2.506 0 011.26.289 2.368 2.368 0 01.74.606.433.433 0 01.089.248.359.359 0 01-.108.27.368.368 0 01-.267.1.4.4 0 01-.311-.152q-.108-.121-.19-.2a2.159 2.159 0 00-.254-.19 1.261 1.261 0 00-.416-.171 2.387 2.387 0 00-.543-.057q-1.834 0-1.834 2.368t1.834 2.38a2.142 2.142 0 00.67-.1 2.185 2.185 0 00.47-.2q.149-.1.365-.254a.435.435 0 01.248-.1.357.357 0 01.267.111.373.373 0 01.108.27.428.428 0 01-.165.324 3 3 0 01-1.961.7 2.514 2.514 0 01-1.986-.774zm5.294.3v-8.529a.4.4 0 01.121-.3.411.411 0 01.3-.117.4.4 0 01.3.117.4.4 0 01.117.3v3.669a1.543 1.543 0 01.66-.651 2.175 2.175 0 011.073-.257 3.388 3.388 0 011.012.136 2 2 0 01.692.352 1.67 1.67 0 01.416.527 2.2 2.2 0 01.213.616 3.831 3.831 0 01.054.667v3.472a.4.4 0 01-.117.3.4.4 0 01-.3.117.411.411 0 01-.3-.117.4.4 0 01-.121-.3v-3.3a3.256 3.256 0 00-.067-.708 1.541 1.541 0 00-.235-.54 1 1 0 00-.479-.365 2.156 2.156 0 00-.774-.121q-1.733 0-1.733 1.822v3.212a.4.4 0 01-.117.3.4.4 0 01-.3.117.411.411 0 01-.3-.117.4.4 0 01-.115-.3zm6.424-7.414q0-.514.5-.514t.489.514a.5.5 0 01-.127.365.482.482 0 01-.362.13.493.493 0 01-.365-.13.493.493 0 01-.135-.363zm.076 7.414v-5.279a.4.4 0 01.121-.3.411.411 0 01.3-.117.4.4 0 01.3.117.4.4 0 01.117.3v5.281a.4.4 0 01-.117.3.4.4 0 01-.3.117.411.411 0 01-.3-.117.4.4 0 01-.121-.3zm2.52 0v-5.279a.4.4 0 01.121-.3.411.411 0 01.3-.117.4.4 0 01.3.117.4.4 0 01.117.3v.419a1.543 1.543 0 01.66-.651 2.175 2.175 0 011.073-.257 3.388 3.388 0 011.012.136 2 2 0 01.692.352 1.67 1.67 0 01.416.527 2.2 2.2 0 01.213.616 3.831 3.831 0 01.054.667v3.472a.4.4 0 01-.117.3.4.4 0 01-.3.117.411.411 0 01-.3-.117.4.4 0 01-.121-.3v-3.3a3.256 3.256 0 00-.067-.708 1.541 1.541 0 00-.235-.54 1 1 0 00-.479-.365 2.156 2.156 0 00-.774-.121q-1.733 0-1.733 1.822v3.212a.4.4 0 01-.117.3.4.4 0 01-.3.117.411.411 0 01-.3-.117.4.4 0 01-.115-.3zm6.424-7.414q0-.514.5-.514t.489.514a.5.5 0 01-.127.365.482.482 0 01-.362.13.493.493 0 01-.365-.13.493.493 0 01-.135-.363zm.076 7.414v-5.279a.4.4 0 01.121-.3.411.411 0 01.3-.117.4.4 0 01.3.117.4.4 0 01.117.3v5.281a.4.4 0 01-.117.3.4.4 0 01-.3.117.411.411 0 01-.3-.117.4.4 0 01-.121-.3zm2.107-.717a.362.362 0 01.108-.267.362.362 0 01.267-.108.4.4 0 01.286.127 2.234 2.234 0 001.65.641 1.947 1.947 0 00.993-.225.755.755 0 00.384-.7.664.664 0 00-.146-.425 1.067 1.067 0 00-.387-.3 5.507 5.507 0 00-.549-.213l-.625-.217a5.054 5.054 0 01-.625-.265 3.372 3.372 0 01-.549-.343 1.353 1.353 0 01-.387-.489 1.546 1.546 0 01-.146-.682 1.347 1.347 0 01.555-1.171 2.406 2.406 0 011.431-.4 2.3 2.3 0 011.974.832.415.415 0 01.1.248.357.357 0 01-.111.267.373.373 0 01-.27.108.373.373 0 01-.273-.114 2.006 2.006 0 00-.613-.409 2.087 2.087 0 00-.8-.136 1.675 1.675 0 00-.828.184.638.638 0 00-.327.6.714.714 0 00.144.438 1.089 1.089 0 00.383.316 4.417 4.417 0 00.55.232l.625.22a5.642 5.642 0 01.624.263 3.717 3.717 0 01.553.331 1.292 1.292 0 01.39.468 1.437 1.437 0 01.147.658 1.564 1.564 0 01-.3.968 1.678 1.678 0 01-.787.574 3.278 3.278 0 01-1.124.178 3.048 3.048 0 01-1.333-.286 2.476 2.476 0 01-.889-.654.433.433 0 01-.094-.247zm5.922.717v-5.279a.4.4 0 01.121-.3.411.411 0 01.3-.117.4.4 0 01.3.117.4.4 0 01.117.3v.419a1.46 1.46 0 01.632-.647 2.087 2.087 0 011.057-.26 3.034 3.034 0 011.295.248 1.722 1.722 0 01.774.66 2.078 2.078 0 011.9-.908 3.484 3.484 0 011.022.136 2.1 2.1 0 01.711.352 1.726 1.726 0 01.435.527 2.184 2.184 0 01.229.619 3.451 3.451 0 01.06.663v3.472a.4.4 0 01-.117.3.4.4 0 01-.3.117.411.411 0 01-.3-.117.4.4 0 01-.121-.3v-3.3a1.988 1.988 0 00-.371-1.289 1.544 1.544 0 00-1.26-.448 1.646 1.646 0 00-1.222.409 1.572 1.572 0 00-.4 1.152v3.476a.4.4 0 01-.117.3.4.4 0 01-.3.117.411.411 0 01-.3-.117.4.4 0 01-.121-.3v-3.3a2.05 2.05 0 00-.341-1.289 1.509 1.509 0 00-1.25-.444 1.468 1.468 0 00-1.231.473 2.155 2.155 0 00-.368 1.349v3.211a.4.4 0 01-.117.3.4.4 0 01-.3.117.411.411 0 01-.3-.117.4.4 0 01-.116-.3zm10.113-2.651a3.41 3.41 0 01.7-2.3 2.473 2.473 0 011.974-.812 3.076 3.076 0 01.9.124 1.937 1.937 0 01.667.34 2.614 2.614 0 01.451.47 1.9 1.9 0 01.282.552 3.909 3.909 0 01.136.549 3.065 3.065 0 01.041.5q0 .19-.01.3a1.284 1.284 0 01-.044.241.366.366 0 01-.159.216.566.566 0 01-.3.07h-3.8a2.206 2.206 0 00.524 1.546 1.848 1.848 0 001.444.568 2.23 2.23 0 00.863-.149 3.214 3.214 0 00.7-.409.439.439 0 01.235-.083.357.357 0 01.267.111.373.373 0 01.108.27.419.419 0 01-.14.3 2.291 2.291 0 01-.355.282 2.98 2.98 0 01-.682.3 3.181 3.181 0 01-.993.152 2.723 2.723 0 01-2.078-.774 3.325 3.325 0 01-.731-2.364zm.844-.482h3.5a2.911 2.911 0 00-.076-.692 2.053 2.053 0 00-.251-.594 1.163 1.163 0 00-.514-.441 1.931 1.931 0 00-.822-.159 1.706 1.706 0 00-1.3.5 2.149 2.149 0 00-.537 1.385zm8.287 1.758a1.631 1.631 0 01.609-1.346 2.586 2.586 0 011.663-.489h1.838v-.349a1.367 1.367 0 00-.41-1.047 1.576 1.576 0 00-1.124-.387 2.044 2.044 0 00-.854.159 1.958 1.958 0 00-.651.508.454.454 0 01-.343.184.357.357 0 01-.267-.111.373.373 0 01-.108-.27.433.433 0 01.063-.222 2.084 2.084 0 01.838-.743 2.871 2.871 0 011.32-.279 2.4 2.4 0 011.739.6 2.141 2.141 0 01.616 1.612v3.568a.377.377 0 01-.122.282.405.405 0 01-.29.117.394.394 0 01-.287-.117.382.382 0 01-.12-.282v-.47a1.6 1.6 0 01-.746.692 2.521 2.521 0 01-1.114.249 2.535 2.535 0 01-1.65-.488 1.669 1.669 0 01-.6-1.371zm.844 0a.979.979 0 00.368.813 1.768 1.768 0 001.111.292 1.9 1.9 0 001.257-.438 1.505 1.505 0 00.527-1.225v-.546h-1.831a1.742 1.742 0 00-1.044.279.955.955 0 00-.385.825zm5.145 2.481a1.247 1.247 0 01.263-.781 1.713 1.713 0 01.727-.533 1.219 1.219 0 01-.6-.4 1.018 1.018 0 01-.222-.654 1.05 1.05 0 01.529-.908 2.163 2.163 0 01-.475-1.417 2.066 2.066 0 01.637-1.593 2.5 2.5 0 011.765-.59 2.726 2.726 0 011.387.324 1.537 1.537 0 01.447-.524 1.212 1.212 0 01.708-.181.367.367 0 01.27.111.367.367 0 01.111.27.357.357 0 01-.111.267.373.373 0 01-.27.108.622.622 0 00-.622.4 2.146 2.146 0 01.467 1.408 2.072 2.072 0 01-.63 1.6 2.477 2.477 0 01-1.756.59 2.754 2.754 0 01-1.4-.33.572.572 0 00-.234.47q0 .546.957.546h1.337a2.787 2.787 0 011.643.448 1.515 1.515 0 01.633 1.319 1.578 1.578 0 01-.377 1.082 2.062 2.062 0 01-.986.609 5.031 5.031 0 01-1.427.181 6.088 6.088 0 01-.805-.051 3.707 3.707 0 01-.748-.181 2.306 2.306 0 01-.631-.33 1.469 1.469 0 01-.425-.524 1.626 1.626 0 01-.162-.736zm.844 0a.813.813 0 00.279.632 1.6 1.6 0 00.7.355 3.983 3.983 0 00.963.1 3.061 3.061 0 001.391-.276.912.912 0 00.542-.866q0-.99-1.432-.99h-1.35a1.491 1.491 0 00-.826.369.918.918 0 00-.267.676zm.64-5.735a1.382 1.382 0 00-.405 1.042 1.372 1.372 0 00.405 1.041 1.585 1.585 0 001.14.387 1.585 1.585 0 001.14-.387 1.372 1.372 0 00.406-1.041 1.382 1.382 0 00-.405-1.044 1.577 1.577 0 00-1.14-.39 1.577 1.577 0 00-1.141.392zm5.206 4.631v-5.281a.4.4 0 01.121-.3.411.411 0 01.3-.108.4.4 0 01.3.117.4.4 0 01.117.3v.571a1.629 1.629 0 01.679-.749 2.155 2.155 0 011.13-.286.385.385 0 01.282.117.385.385 0 01.117.282.4.4 0 01-.117.286.38.38 0 01-.282.121 1.661 1.661 0 00-1.339.552 2.2 2.2 0 00-.47 1.473v2.905a.4.4 0 01-.117.3.4.4 0 01-.3.111.411.411 0 01-.3-.117.4.4 0 01-.121-.294zm3.921-7.414q0-.514.5-.514t.489.514a.5.5 0 01-.127.365.482.482 0 01-.362.13.493.493 0 01-.365-.13.493.493 0 01-.135-.365zm.076 7.414v-5.281a.4.4 0 01.121-.3.411.411 0 01.303-.108.4.4 0 01.3.117.4.4 0 01.117.3v5.272a.4.4 0 01-.117.3.4.4 0 01-.3.111.411.411 0 01-.3-.117.4.4 0 01-.121-.294zm2.831-.3a3.443 3.443 0 01-.7-2.352 3.416 3.416 0 01.7-2.342 2.527 2.527 0 011.984-.774 2.506 2.506 0 011.26.289 2.368 2.368 0 01.74.606.433.433 0 01.089.248.359.359 0 01-.108.27.368.368 0 01-.267.1.4.4 0 01-.311-.152q-.108-.121-.19-.2a2.159 2.159 0 00-.254-.19 1.261 1.261 0 00-.416-.171 2.387 2.387 0 00-.543-.057q-1.834 0-1.834 2.368t1.833 2.384a2.142 2.142 0 00.67-.1 2.185 2.185 0 00.47-.2q.149-.1.365-.254a.435.435 0 01.248-.1.357.357 0 01.267.111.373.373 0 01.108.27.428.428 0 01-.165.324 3 3 0 01-1.961.7 2.514 2.514 0 01-1.982-.78zm5.754 0a3.374 3.374 0 01-.72-2.349 3.346 3.346 0 01.717-2.339 2.6 2.6 0 012.012-.778 2.6 2.6 0 012.015.778 3.356 3.356 0 01.714 2.339 3.394 3.394 0 01-.714 2.349 2.582 2.582 0 01-2.015.787 2.587 2.587 0 01-2.006-.792zm.124-2.349q0 2.38 1.885 2.38t1.885-2.38q0-2.368-1.885-2.368t-1.882 2.364zm5.846 1.549v-7.431a.391.391 0 01.127-.289.406.406 0 01.292-.124.4.4 0 01.292.121.4.4 0 01.121.292v7.427q0 .743.521.743a.389.389 0 01.276.111.365.365 0 01.117.276.365.365 0 01-.117.276.389.389 0 01-.276.111 1.286 1.286 0 01-1-.384 1.632 1.632 0 01-.35-1.134zm2.457-1.549a3.41 3.41 0 01.7-2.3 2.473 2.473 0 011.974-.812 3.076 3.076 0 01.9.124 1.937 1.937 0 01.667.34 2.614 2.614 0 01.451.47 1.9 1.9 0 01.282.552 3.909 3.909 0 01.136.549 3.065 3.065 0 01.041.5q0 .19-.01.3a1.284 1.284 0 01-.054.251.366.366 0 01-.159.216.566.566 0 01-.3.07h-3.8a2.206 2.206 0 00.524 1.546 1.848 1.848 0 001.46.554 2.23 2.23 0 00.863-.149 3.214 3.214 0 00.7-.409.439.439 0 01.235-.083.357.357 0 01.267.111.373.373 0 01.108.27.419.419 0 01-.14.3 2.291 2.291 0 01-.355.282 2.98 2.98 0 01-.682.3 3.181 3.181 0 01-.993.152 2.723 2.723 0 01-2.08-.774 3.325 3.325 0 01-.733-2.364zm.844-.482h3.5a2.911 2.911 0 00-.076-.692 2.053 2.053 0 00-.251-.594 1.163 1.163 0 00-.514-.441 1.931 1.931 0 00-.822-.159 1.706 1.706 0 00-1.3.5 2.149 2.149 0 00-.535 1.381zm8.69 5.643v-7.793a.393.393 0 01.124-.292.408.408 0 01.3-.121.4.4 0 01.292.121.4.4 0 01.121.292v.419a1.7 1.7 0 01.682-.638 2.18 2.18 0 011.089-.27 2.579 2.579 0 012.009.778 3.376 3.376 0 01.708 2.339 3.4 3.4 0 01-.711 2.352 2.57 2.57 0 01-2.006.784 2.115 2.115 0 01-1.073-.27 1.9 1.9 0 01-.7-.644v2.942a.406.406 0 01-.124.292.391.391 0 01-.289.127.434.434 0 01-.419-.419zm1.3-6.944a2.711 2.711 0 00-.5 1.784 2.751 2.751 0 00.492 1.79 1.613 1.613 0 001.3.59 1.69 1.69 0 001.393-.59 2.8 2.8 0 00.479-1.79 2.726 2.726 0 00-.492-1.781 1.732 1.732 0 00-1.406-.587 1.6 1.6 0 00-1.262.579zm4.913 3.06a1.631 1.631 0 01.609-1.346 2.586 2.586 0 011.663-.489h1.834v-.349a1.367 1.367 0 00-.413-1.047 1.576 1.576 0 00-1.124-.387 2.044 2.044 0 00-.854.159 1.958 1.958 0 00-.651.508.454.454 0 01-.343.184.357.357 0 01-.267-.111.373.373 0 01-.108-.27.433.433 0 01.063-.222 2.084 2.084 0 01.838-.743 2.871 2.871 0 011.32-.279 2.4 2.4 0 011.739.6 2.141 2.141 0 01.616 1.612v3.563a.377.377 0 01-.122.282.405.405 0 01-.29.117.394.394 0 01-.287-.117.382.382 0 01-.119-.282v-.47a1.6 1.6 0 01-.746.692 2.521 2.521 0 01-1.114.248 2.535 2.535 0 01-1.647-.489 1.669 1.669 0 01-.593-1.369zm.844 0a.979.979 0 00.368.813 1.768 1.768 0 001.111.292 1.9 1.9 0 001.257-.438 1.505 1.505 0 00.527-1.225v-.546h-1.834a1.742 1.742 0 00-1.044.279.955.955 0 00-.381.82zm5.624 1.377v-5.286a.4.4 0 01.121-.3.411.411 0 01.3-.117.4.4 0 01.3.117.4.4 0 01.117.3v.571a1.629 1.629 0 01.679-.749 2.155 2.155 0 011.13-.286.385.385 0 01.282.117.385.385 0 01.117.282.4.4 0 01-.117.286.38.38 0 01-.282.121 1.661 1.661 0 00-1.339.552 2.2 2.2 0 00-.47 1.473v2.914a.4.4 0 01-.117.3.4.4 0 01-.3.117.411.411 0 01-.3-.117.4.4 0 01-.117-.3zm6.652-4.576a.587.587 0 01-.171-.423.576.576 0 01.171-.419.558.558 0 01.413-.174h.3v-1.08a.644.644 0 01.206-.477.673.673 0 01.486-.2.663.663 0 01.482.2.649.649 0 01.2.477v1.078h.584a.558.558 0 01.413.174.576.576 0 01.171.419.587.587 0 01-.171.423.553.553 0 01-.413.177h-.584v3.148a.426.426 0 00.152.34.513.513 0 00.343.13.594.594 0 01.432.174.569.569 0 01.178.423.569.569 0 01-.178.423.594.594 0 01-.432.174 1.882 1.882 0 01-1.365-.49 1.683 1.683 0 01-.508-1.268v-3.057h-.3a.553.553 0 01-.405-.177zm3.972 1.882a3.247 3.247 0 01.739-2.279 2.671 2.671 0 012.07-.8 3.118 3.118 0 011.118.185 2.177 2.177 0 01.76.456 2.2 2.2 0 01.447.635 2.794 2.794 0 01.23.673 3.32 3.32 0 01.057.61q0 .2-.006.309a1.618 1.618 0 01-.048.276.608.608 0 01-.118.257.647.647 0 01-.236.156.988.988 0 01-.389.068h-3.221a1.235 1.235 0 00.42 1.014 1.681 1.681 0 001.1.344 2.262 2.262 0 001.293-.411.825.825 0 01.423-.141.594.594 0 01.436.179.591.591 0 01.179.435.625.625 0 01-.223.486 2.3 2.3 0 01-.38.287 3.185 3.185 0 01-.706.288 3.464 3.464 0 01-1.022.147 2.873 2.873 0 01-2.159-.786 3.3 3.3 0 01-.764-2.388zm1.441-.652h2.577a1.3 1.3 0 00-.309-.877 1.119 1.119 0 00-.9-.361 1.4 1.4 0 00-.955.32 1.283 1.283 0 00-.413.92zm4.938 3.052v-4.71a.67.67 0 01.205-.5.68.68 0 01.5-.2.678.678 0 01.5.2.675.675 0 01.205.5v.07a1.41 1.41 0 01.586-.606 1.635 1.635 0 01.821-.23.637.637 0 01.468.195.64.64 0 01.194.469.639.639 0 01-.194.469.637.637 0 01-.468.195 1.357 1.357 0 00-1.035.393 1.467 1.467 0 00-.372 1.052v2.703a.669.669 0 01-.216.5.68.68 0 01-.5.2.68.68 0 01-.5-.2.67.67 0 01-.194-.5zm4.145 0v-4.71a.67.67 0 01.205-.5.68.68 0 01.5-.2.678.678 0 01.5.2.675.675 0 01.205.5v.07a1.41 1.41 0 01.586-.606 1.635 1.635 0 01.821-.23.637.637 0 01.468.195.64.64 0 01.194.469.639.639 0 01-.194.469.637.637 0 01-.468.195 1.357 1.357 0 00-1.035.393 1.467 1.467 0 00-.372 1.052v2.703a.669.669 0 01-.205.494.68.68 0 01-.5.2.68.68 0 01-.5-.2.67.67 0 01-.205-.494zm3.821-2.4a3.247 3.247 0 01.739-2.279 2.671 2.671 0 012.07-.8 3.118 3.118 0 011.119.179 2.177 2.177 0 01.76.456 2.2 2.2 0 01.447.635 2.794 2.794 0 01.23.673 3.32 3.32 0 01.057.61q0 .2-.006.309a1.618 1.618 0 01-.048.276.608.608 0 01-.118.257.647.647 0 01-.236.156.988.988 0 01-.389.068h-3.221a1.235 1.235 0 00.42 1.014 1.681 1.681 0 001.1.344 2.262 2.262 0 001.293-.411.825.825 0 01.423-.141.594.594 0 01.436.179.591.591 0 01.179.435.625.625 0 01-.223.486 2.3 2.3 0 01-.38.287 3.185 3.185 0 01-.706.288 3.464 3.464 0 01-1.018.15 2.873 2.873 0 01-2.159-.786 3.3 3.3 0 01-.769-2.385zm1.441-.652h2.577a1.3 1.3 0 00-.309-.877 1.119 1.119 0 00-.9-.361 1.4 1.4 0 00-.955.32 1.283 1.283 0 00-.413.92zm8.338 3.037a3.309 3.309 0 01-.74-2.348 3.3 3.3 0 01.736-2.342 2.746 2.746 0 012.095-.778 3 3 0 011.022.171 2.689 2.689 0 01.711.352 2.252 2.252 0 01.387.371.705.705 0 01.14.4.611.611 0 01-.181.444.6.6 0 01-.441.184.633.633 0 01-.482-.222 1.512 1.512 0 00-1.155-.508 1.2 1.2 0 00-1.041.5 2.408 2.408 0 00-.362 1.424 2.431 2.431 0 00.362 1.44 1.207 1.207 0 001.041.5 1.607 1.607 0 00.543-.1 1.924 1.924 0 00.4-.183q.13-.087.346-.247a.667.667 0 01.387-.128.6.6 0 01.441.181.6.6 0 01.181.441.633.633 0 01-.222.482 3.015 3.015 0 01-.838.511 3.083 3.083 0 01-1.238.232 2.736 2.736 0 01-2.092-.775zm5.119-2.336a3.274 3.274 0 01.752-2.348 2.773 2.773 0 012.1-.785 2.731 2.731 0 012.088.785 3.31 3.31 0 01.739 2.348 3.28 3.28 0 01-.743 2.337 2.736 2.736 0 01-2.085.783 2.778 2.778 0 01-2.1-.783 3.244 3.244 0 01-.751-2.334zm1.428 0a2.4 2.4 0 00.361 1.44 1.242 1.242 0 001.064.486 1.242 1.242 0 001.064-.486 2.4 2.4 0 00.361-1.44q0-1.939-1.425-1.939t-1.423 1.942zm5.288 2.377v-4.733a.67.67 0 01.205-.5.68.68 0 01.5-.2.68.68 0 01.5.2.67.67 0 01.205.5 1.718 1.718 0 01.64-.549 2.162 2.162 0 011.028-.225 2.85 2.85 0 011.21.216 1.677 1.677 0 01.715.628 2.071 2.071 0 01.768-.635 2.55 2.55 0 011.092-.209 2.989 2.989 0 01.911.127 1.836 1.836 0 01.644.34 1.749 1.749 0 01.406.511 2.254 2.254 0 01.222.609 3.365 3.365 0 01.063.673v3.25a.631.631 0 01-.206.479.7.7 0 01-.5.194.689.689 0 01-.5-.19.648.648 0 01-.194-.482v-2.99q0-1.25-1.143-1.25a1.308 1.308 0 00-.987.33 1.263 1.263 0 00-.314.908v3a.631.631 0 01-.206.479.7.7 0 01-.5.194.689.689 0 01-.5-.19.648.648 0 01-.194-.482v-2.99q0-1.25-1.152-1.25a1.166 1.166 0 00-1.3 1.339v2.9a.634.634 0 01-.2.482.7.7 0 01-.5.19.7.7 0 01-.5-.19.634.634 0 01-.213-.481zm10.08-4.316a.587.587 0 01-.171-.423.576.576 0 01.171-.419.558.558 0 01.413-.174h.3v-1.08a.644.644 0 01.206-.477.673.673 0 01.486-.2.663.663 0 01.482.2.649.649 0 01.2.477v1.086h.584a.558.558 0 01.413.174.576.576 0 01.171.419.587.587 0 01-.171.423.553.553 0 01-.413.177h-.584v3.148a.426.426 0 00.152.34.513.513 0 00.343.13.594.594 0 01.432.174.569.569 0 01.178.423.569.569 0 01-.178.423.594.594 0 01-.43.169 1.882 1.882 0 01-1.365-.49 1.683 1.683 0 01-.508-1.268v-3.052h-.3a.553.553 0 01-.411-.177zm3.955 1.939a3.274 3.274 0 01.752-2.348 2.773 2.773 0 012.1-.785 2.731 2.731 0 012.088.785 3.31 3.31 0 01.739 2.351 3.28 3.28 0 01-.743 2.337 2.736 2.736 0 01-2.085.783 2.778 2.778 0 01-2.1-.783 3.244 3.244 0 01-.751-2.337zm1.428 0a2.4 2.4 0 00.361 1.44 1.242 1.242 0 001.064.486 1.242 1.242 0 001.064-.486 2.4 2.4 0 00.361-1.44q0-1.939-1.425-1.939t-1.425 1.942zm5.224-4.58a.746.746 0 01.832-.857.752.752 0 01.844.857.808.808 0 01-.219.6.853.853 0 01-.625.216.826.826 0 01-.616-.219.817.817 0 01-.216-.594zm.133 6.931v-4.71a.674.674 0 01.2-.5.674.674 0 01.5-.2.684.684 0 01.5.2.669.669 0 01.206.5v4.71a.669.669 0 01-.206.5.684.684 0 01-.5.2.674.674 0 01-.5-.2.674.674 0 01-.2-.5zm2.374-.571a.6.6 0 01.188-.441.607.607 0 01.443-.187.667.667 0 01.4.154 2.263 2.263 0 001.434.519q.968 0 .968-.521a.461.461 0 00-.136-.327.966.966 0 00-.362-.229q-.225-.086-.511-.184t-.584-.184a2.883 2.883 0 01-.584-.242 3.04 3.04 0 01-.511-.347 1.359 1.359 0 01-.362-.5 1.742 1.742 0 01-.136-.706 1.475 1.475 0 01.613-1.27 2.587 2.587 0 011.558-.444 3.432 3.432 0 011.25.224 2.023 2.023 0 01.857.566.612.612 0 01.127.379.6.6 0 01-.184.438.6.6 0 01-.438.184.813.813 0 01-.444-.178 1.955 1.955 0 00-1.168-.42 1.06 1.06 0 00-.568.127.411.411 0 00-.2.369.429.429 0 00.178.337 1.5 1.5 0 00.457.245q.279.1.622.2a5.746 5.746 0 01.683.245 3.329 3.329 0 01.617.343 1.494 1.494 0 01.453.531 1.63 1.63 0 01.176.773 1.607 1.607 0 01-.667 1.383 2.843 2.843 0 01-1.714.484 3.325 3.325 0 01-1.39-.282 2.48 2.48 0 01-.908-.632.634.634 0 01-.157-.404zm5.586-1.829a3.247 3.247 0 01.739-2.279 2.671 2.671 0 012.07-.8 3.118 3.118 0 011.118.185 2.177 2.177 0 01.76.456 2.2 2.2 0 01.447.635 2.794 2.794 0 01.23.673 3.32 3.32 0 01.057.61q0 .2-.006.309a1.618 1.618 0 01-.048.276.608.608 0 01-.118.257.647.647 0 01-.236.156.988.988 0 01-.389.068h-3.221a1.235 1.235 0 00.42 1.014 1.681 1.681 0 001.1.344 2.262 2.262 0 001.293-.411.825.825 0 01.423-.141.594.594 0 01.436.179.591.591 0 01.179.435.625.625 0 01-.223.486 2.3 2.3 0 01-.38.287 3.185 3.185 0 01-.706.288 3.464 3.464 0 01-1.022.147 2.873 2.873 0 01-2.159-.786 3.3 3.3 0 01-.764-2.388zm1.441-.652h2.577a1.3 1.3 0 00-.309-.877 1.119 1.119 0 00-.9-.361 1.4 1.4 0 00-.955.32 1.283 1.283 0 00-.413.92z" data-name="Tracé 691" />
    </g>
  </g>
</svg>